<?xml version="1.0" encoding="UTF-8"?>
<!DOCTYPE svg PUBLIC "-//W3C//DTD SVG 1.1//EN" "http://www.w3.org/Graphics/SVG/1.1/DTD/svg11.dtd">
<!-- Creator: CorelDRAW X7 -->
<svg xmlns="http://www.w3.org/2000/svg" xml:space="preserve" width="8.5in" height="1.2in" version="1.1" style="shape-rendering:geometricPrecision; text-rendering:geometricPrecision; image-rendering:optimizeQuality; fill-rule:evenodd; clip-rule:evenodd"
viewBox="0 0 8500 1200"
 xmlns:xlink="http://www.w3.org/1999/xlink">
 <defs>
  <style type="text/css">
   <![CDATA[
    .str0 {stroke:white;stroke-width:27.7795}
    .str1 {stroke:white;stroke-width:6.94488}
    .fil1 {fill:none}
    .fil0 {fill:#595C5E}
    .fil2 {fill:white}
    .fil3 {fill:#595C5E;fill-rule:nonzero}
   ]]>
  </style>
 </defs>
 <g id="Layer_x0020_1">
  <metadata id="CorelCorpID_0Corel-Layer"/>
  <g id="_2004979434768">
   <path class="fil0" d="M0 1l1201 0 0 1074c0,66 -54,120 -120,120l-962 0c-65,0 -119,-54 -119,-120l0 -1074z"/>
   <path class="fil1 str0" d="M336 229c-92,256 59,444 251,449 232,5 334,-203 249,-443"/>
   <path class="fil2 str1" d="M828 159c28,0 50,21 50,46 0,26 -22,47 -50,47 -27,0 -49,-21 -49,-47 0,-25 22,-46 49,-46z"/>
   <path class="fil2 str1" d="M338 160c28,0 50,21 50,46 0,26 -22,46 -50,46 -27,0 -49,-20 -49,-46 0,-25 22,-46 49,-46z"/>
  </g>
 </g>
</svg>
