<?xml version="1.0" encoding="UTF-8"?>
<!DOCTYPE svg PUBLIC "-//W3C//DTD SVG 1.1//EN" "http://www.w3.org/Graphics/SVG/1.1/DTD/svg11.dtd">
<!-- Creator: CorelDRAW X7 -->
<svg xmlns="http://www.w3.org/2000/svg" xml:space="preserve" width="8.5in" height="1.2in" version="1.1" style="shape-rendering:geometricPrecision; text-rendering:geometricPrecision; image-rendering:optimizeQuality; fill-rule:evenodd; clip-rule:evenodd"
viewBox="0 0 8500 1200"
 xmlns:xlink="http://www.w3.org/1999/xlink">
 <defs>
  <style type="text/css">
   <![CDATA[
    .str0 {stroke:white;stroke-width:27.7795}
    .str1 {stroke:white;stroke-width:6.94488}
    .fil1 {fill:none}
    .fil0 {fill:#595C5E}
    .fil2 {fill:white}
    .fil3 {fill:#595C5E;fill-rule:nonzero}
   ]]>
  </style>
 </defs>
 <g id="Layer_x0020_1">
  <metadata id="CorelCorpID_0Corel-Layer"/>
  <g id="_2004979434768">
   <path class="fil0" d="M0 1l1201 0 0 1074c0,66 -54,120 -120,120l-962 0c-65,0 -119,-54 -119,-120l0 -1074z"/>
   <path class="fil1 str0" d="M336 229c-92,256 59,444 251,449 232,5 334,-203 249,-443"/>
   <path class="fil2 str1" d="M828 159c28,0 50,21 50,46 0,26 -22,47 -50,47 -27,0 -49,-21 -49,-47 0,-25 22,-46 49,-46z"/>
   <path class="fil2 str1" d="M338 160c28,0 50,21 50,46 0,26 -22,46 -50,46 -27,0 -49,-20 -49,-46 0,-25 22,-46 49,-46z"/>
   <path class="fil3" d="M1860 643c0,175 -77,263 -231,263 -146,0 -220,-85 -220,-254l0 -385 58 0 0 380c0,69 14,120 42,155 28,34 71,51 129,51 109,0 164,-67 164,-200l0 -386 58 0 0 376zm585 252l-348 -504c-4,-6 -9,-13 -13,-20 -4,-6 -8,-13 -10,-19l-3 0c1,5 1,12 2,22 0,9 1,20 1,34l0 487 -59 0 0 -628 65 0 342 498c6,8 10,15 15,22 4,7 8,13 11,19l2 0c-1,-10 -2,-20 -2,-33 -1,-11 -1,-25 -1,-39l0 -467 59 0 0 628 -61 0zm282 0l-59 0 0 -628 59 0 0 628zm221 -574l0 236 229 0 0 53 -229 0 0 285 -58 0 0 -628 306 0 0 54 -248 0zm624 585c-45,0 -85,-9 -122,-25 -36,-17 -66,-39 -92,-68 -25,-28 -44,-62 -58,-100 -14,-39 -20,-81 -20,-125 0,-49 6,-94 20,-135 14,-40 33,-75 59,-104 26,-29 58,-52 96,-68 37,-16 80,-24 128,-24 45,0 85,8 120,23 35,16 65,38 90,67 25,28 44,61 57,100 13,38 20,80 20,125 0,48 -6,92 -19,133 -13,40 -32,75 -58,105 -25,30 -56,53 -93,70 -37,17 -79,26 -128,26zm5 -596c-38,0 -71,7 -101,21 -29,15 -54,34 -74,59 -20,25 -35,53 -46,87 -10,33 -15,68 -16,105 0,36 5,70 14,102 10,33 24,62 43,87 19,25 43,45 73,59 29,15 63,23 102,23 39,0 74,-7 103,-21 30,-13 55,-32 74,-56 20,-24 35,-53 45,-86 10,-33 15,-70 15,-109 0,-37 -4,-72 -13,-105 -9,-33 -23,-61 -42,-86 -19,-25 -42,-44 -72,-59 -29,-14 -64,-21 -105,-21zm761 585l-95 -180c-9,-18 -18,-33 -27,-45 -9,-12 -18,-21 -27,-28 -10,-8 -20,-13 -30,-16 -11,-3 -23,-4 -36,-4l-69 0 0 273 -58 0 0 -628 180 0c24,0 47,4 69,11 22,7 42,17 59,31 17,13 31,31 41,51 11,21 16,45 16,73 0,22 -4,42 -10,61 -7,18 -17,35 -29,50 -12,14 -28,26 -45,36 -18,10 -38,18 -60,23l0 2c9,3 16,8 23,13 7,6 14,12 21,20 6,8 13,17 19,27 7,11 13,22 20,35l106 195 -68 0zm-284 -574l0 248 104 0c21,0 40,-3 58,-9 17,-7 32,-15 45,-27 12,-11 22,-25 29,-41 6,-16 10,-34 10,-54 0,-37 -12,-65 -35,-86 -24,-21 -58,-31 -102,-31l-109 0zm1014 574l0 -433c0,-23 2,-58 5,-108l-2 0c-4,13 -7,25 -11,34 -3,10 -6,18 -9,24l-219 483 -25 0 -219 -480c-7,-15 -13,-35 -20,-62l-2 0c2,14 2,29 3,46 0,18 1,37 1,58l0 438 -57 0 0 -628 68 0 213 472c5,10 9,20 13,30 5,11 8,22 12,33l3 0c4,-11 7,-22 11,-32 3,-9 7,-20 12,-31l215 -472 65 0 0 628 -57 0zm466 0l0 -628 171 0c26,0 50,4 71,11 20,7 38,17 53,29 15,13 26,28 34,46 8,18 12,37 12,59 0,18 -3,35 -8,50 -5,16 -12,30 -21,43 -10,13 -21,25 -35,34 -13,10 -29,17 -46,23l0 1c21,2 40,8 58,16 17,8 31,19 44,32 12,13 21,28 28,46 7,18 10,37 10,58 0,26 -5,51 -14,73 -10,22 -23,41 -41,57 -17,16 -38,28 -62,37 -24,8 -50,13 -79,13l-175 0zm58 -574l0 222 81 0c22,0 41,-2 58,-8 17,-5 32,-14 44,-24 12,-11 22,-23 28,-38 7,-15 10,-32 10,-50 0,-68 -42,-102 -127,-102l-94 0zm0 275l0 246 108 0c46,0 82,-11 107,-33 25,-22 37,-52 37,-92 0,-81 -54,-121 -164,-121l-88 0zm886 47c0,175 -77,263 -231,263 -147,0 -221,-85 -221,-254l0 -385 59 0 0 380c0,69 14,120 41,155 28,34 71,51 129,51 110,0 165,-67 165,-200l0 -386 58 0 0 376zm577 229c-49,22 -104,34 -166,34 -45,0 -85,-8 -121,-24 -36,-15 -67,-37 -93,-65 -25,-27 -45,-60 -59,-99 -14,-38 -20,-80 -20,-125 0,-47 7,-92 22,-133 14,-41 35,-76 63,-106 27,-31 60,-54 99,-72 39,-17 83,-25 131,-25 54,0 102,8 144,24l0 62c-45,-22 -93,-33 -144,-33 -41,0 -77,7 -108,21 -32,14 -59,33 -80,58 -22,25 -38,54 -50,89 -11,33 -17,71 -17,111 0,36 5,70 16,102 10,32 25,60 45,84 20,24 45,43 75,57 29,14 64,21 103,21 61,0 114,-13 160,-38l0 57zm462 23l-255 -294c-7,-8 -11,-14 -14,-18l-1 0 0 312 -58 0 0 -628 58 0 0 296 1 0c3,-4 5,-7 7,-10 2,-3 5,-6 8,-9l244 -277 74 0 -272 303 290 325 -82 0zm167 0l0 -628 306 0 0 54 -247 0 0 230 229 0 0 52 -229 0 0 239 261 0 0 53 -320 0zm632 -574l0 574 -58 0 0 -574 -181 0 0 -54 421 0 0 54 -182 0z"/>
  </g>
 </g>
</svg>
